<?xml version="1.0" encoding="UTF-8" standalone="no"?>
<svg
   viewBox="0 0 702.3452 829.99618"
   width="702.34521"
   height="829.99615"
   version="1.1"
   id="svg14"
   sodipodi:docname="Logo.svg"
   xmlns:inkscape="http://www.inkscape.org/namespaces/inkscape"
   xmlns:sodipodi="http://sodipodi.sourceforge.net/DTD/sodipodi-0.dtd"
   xmlns="http://www.w3.org/2000/svg"
   xmlns:svg="http://www.w3.org/2000/svg">
  <sodipodi:namedview
     id="namedview1"
     pagecolor="#505050"
     bordercolor="#eeeeee"
     borderopacity="1"
     inkscape:showpageshadow="0"
     inkscape:pageopacity="0"
     inkscape:pagecheckerboard="0"
     inkscape:deskcolor="#505050"
     showgrid="false"
     inkscape:zoom="0.72426349"
     inkscape:cx="396.95498"
     inkscape:cy="561.25983"
     inkscape:window-width="1920"
     inkscape:window-height="1009"
     inkscape:window-x="1912"
     inkscape:window-y="328"
     inkscape:window-maximized="1"
     inkscape:current-layer="svg14" />
  <desc
     id="desc1">testLogo.dxf - scale = 1.000000, origin = (0.000000, 0.000000), method = auto</desc>
  <defs
     id="defs4" />
  <g
     id="g14"
     transform="translate(-40.190694,-168.30409)">
    <path
       d="M 741.91796,639.37922 655.71952,490.07915 511.40854,886.57031 Z"
       style="opacity:1;fill:#000000;fill-opacity:1;stroke:#000000"
       id="path5" />
    <path
       d="M 405.20439,997.32111 488.354,899.0534 537.48786,778.10851 458.11778,642.04552 363.62959,883.93529 Z"
       style="opacity:1;fill:#000000;fill-opacity:1;stroke:#000000"
       id="path6" />
    <path
       d="M 352.29101,865.03765 442.99967,615.58882 424.10203,589.13213 258.08268,602.36048 Z"
       style="opacity:1;fill:#000000;fill-opacity:1;stroke:#000000"
       id="path7" />
    <path
       d="m 545.04692,358.58095 15.11811,343.93701 90.70866,-241.88977 z"
       style="opacity:1;fill:#000000;fill-opacity:1;stroke:#000000"
       id="path8" />
    <path
       d="M 529.31191,343.40791 547.04235,746.77541 435.44061,577.79355 Z"
       style="opacity:1;fill:#000000;fill-opacity:1;stroke:#000000"
       id="path9" />
    <path
       d="M 399.31412,570.23449 284.25951,434.1715 102.84218,581.57308 l 16.04955,22.46937 z"
       style="opacity:1;fill:#000000;fill-opacity:1;stroke:#000000"
       id="path10" />
    <path
       d="m 231.34612,449.28961 -52.91338,11.33858 -137.366517,65.976 46.657851,43.6303 z"
       style="opacity:1;fill:#000000;fill-opacity:1;stroke:#000000"
       id="path11" />
    <path
       d="M 406.89884,548.41934 288.03904,411.49433 186.62581,446.94852 246.46423,366.14 394.34403,314.44105 Z"
       style="opacity:1;fill:#000000;fill-opacity:1;stroke:#000000"
       id="path12" />
    <path
       d="m 386.30676,298.10851 -115.88133,40.51225 6.27502,-169.01619 z"
       style="opacity:1;fill:#000000;fill-opacity:1;stroke:#000000"
       id="path13" />
    <path
       d="M 426.21576,559.61908 519.2877,318.36463 412.76345,180.94315 Z"
       style="opacity:1;fill:#000000;fill-opacity:1;stroke:#000000"
       id="path14" />
  </g>
</svg>
